<svg width="24" height="24" viewBox="0 0 24 24" fill="none" xmlns="http://www.w3.org/2000/svg">
<g clip-path="url(#clip0_2014_590)">
<path d="M2.57122 4.28571C2.11656 4.28571 1.68053 4.46632 1.35904 4.78781C1.03755 5.1093 0.856934 5.54533 0.856934 5.99999V21.4286C0.856934 21.8832 1.03755 22.3193 1.35904 22.6407C1.68053 22.9622 2.11656 23.1428 2.57122 23.1428H21.4284C21.883 23.1428 22.3191 22.9622 22.6405 22.6407C22.962 22.3193 23.1426 21.8832 23.1426 21.4286V5.99999C23.1426 5.54533 22.962 5.1093 22.6405 4.78781C22.3191 4.46632 21.883 4.28571 21.4284 4.28571H17.9998" stroke="#E5F8F8" stroke-width="1.71429" stroke-linecap="round" stroke-linejoin="round"/>
<path d="M6 0.857117V7.71426" stroke="#E5F8F8" stroke-width="1.71429" stroke-linecap="round" stroke-linejoin="round"/>
<path d="M18 0.857117V7.71426" stroke="#E5F8F8" stroke-width="1.71429" stroke-linecap="round" stroke-linejoin="round"/>
<path d="M6 4.28571H14.5714" stroke="#E5F8F8" stroke-width="1.71429" stroke-linecap="round" stroke-linejoin="round"/>
<path d="M5.99972 13.7143C6.47311 13.7143 6.85686 13.3305 6.85686 12.8571C6.85686 12.3838 6.47311 12 5.99972 12C5.52633 12 5.14258 12.3838 5.14258 12.8571C5.14258 13.3305 5.52633 13.7143 5.99972 13.7143Z" stroke="#E5F8F8" stroke-width="1.71429" stroke-linecap="round" stroke-linejoin="round"/>
<path d="M11.9997 13.7143C12.4731 13.7143 12.8569 13.3305 12.8569 12.8571C12.8569 12.3838 12.4731 12 11.9997 12C11.5263 12 11.1426 12.3838 11.1426 12.8571C11.1426 13.3305 11.5263 13.7143 11.9997 13.7143Z" stroke="#E5F8F8" stroke-width="1.71429" stroke-linecap="round" stroke-linejoin="round"/>
<path d="M17.9997 13.7143C18.4731 13.7143 18.8569 13.3305 18.8569 12.8571C18.8569 12.3838 18.4731 12 17.9997 12C17.5263 12 17.1426 12.3838 17.1426 12.8571C17.1426 13.3305 17.5263 13.7143 17.9997 13.7143Z" stroke="#E5F8F8" stroke-width="1.71429" stroke-linecap="round" stroke-linejoin="round"/>
<path d="M5.99972 18.8572C6.47311 18.8572 6.85686 18.4734 6.85686 18C6.85686 17.5266 6.47311 17.1429 5.99972 17.1429C5.52633 17.1429 5.14258 17.5266 5.14258 18C5.14258 18.4734 5.52633 18.8572 5.99972 18.8572Z" stroke="#E5F8F8" stroke-width="1.71429" stroke-linecap="round" stroke-linejoin="round"/>
</g>
<defs>
<clipPath id="clip0_2014_590">
<rect width="24" height="24" fill="white"/>
</clipPath>
</defs>
</svg>
