<svg width="34" height="34" viewBox="0 0 34 34" fill="none" xmlns="http://www.w3.org/2000/svg">
<path d="M21.6747 23.6585L23.658 21.6752L18.4163 16.4335V9.91683H15.583V17.5668L21.6747 23.6585ZM16.9997 31.1668C15.04 31.1668 13.1983 30.795 11.4747 30.0512C9.75106 29.3075 8.25176 28.2981 6.97676 27.0231C5.70176 25.7481 4.69238 24.2488 3.94863 22.5252C3.20488 20.8016 2.83301 18.9599 2.83301 17.0002C2.83301 15.0404 3.20488 13.1988 3.94863 11.4752C4.69238 9.75155 5.70176 8.25225 6.97676 6.97725C8.25176 5.70225 9.75106 4.69287 11.4747 3.94912C13.1983 3.20537 15.04 2.8335 16.9997 2.8335C18.9594 2.8335 20.8011 3.20537 22.5247 3.94912C24.2483 4.69287 25.7476 5.70225 27.0226 6.97725C28.2976 8.25225 29.307 9.75155 30.0507 11.4752C30.7945 13.1988 31.1663 15.0404 31.1663 17.0002C31.1663 18.9599 30.7945 20.8016 30.0507 22.5252C29.307 24.2488 28.2976 25.7481 27.0226 27.0231C25.7476 28.2981 24.2483 29.3075 22.5247 30.0512C20.8011 30.795 18.9594 31.1668 16.9997 31.1668ZM16.9997 28.3335C20.14 28.3335 22.8139 27.2297 25.0215 25.022C27.2292 22.8144 28.333 20.1404 28.333 17.0002C28.333 13.8599 27.2292 11.1859 25.0215 8.97829C22.8139 6.77065 20.14 5.66683 16.9997 5.66683C13.8594 5.66683 11.1854 6.77065 8.9778 8.97829C6.77016 11.1859 5.66634 13.8599 5.66634 17.0002C5.66634 20.1404 6.77016 22.8144 8.9778 25.022C11.1854 27.2297 13.8594 28.3335 16.9997 28.3335Z" fill="#F5AF1B"/>
</svg>
