<svg width="345" height="202" viewBox="0 0 345 202" fill="none" xmlns="http://www.w3.org/2000/svg">
<path d="M41.6342 142.937C41.5631 142.937 41.5062 142.994 41.4991 143.065C41.0294 149.611 43.7619 155.937 48.1452 160.591C48.871 161.359 50.2585 162.384 52.3079 163.658C55.204 165.458 58.3776 166.39 61.8216 166.454C68.1333 166.561 73.9967 166.511 79.3975 166.298C83.5247 166.134 87.1323 164.882 90.2135 162.534C93.2163 160.242 95.4934 157.538 97.0446 154.414C99.0726 150.33 99.0583 146.367 99.0726 140.859C99.1082 128.228 99.101 117.512 99.0655 108.724C99.0655 107.458 99.0014 106.291 98.8733 105.223C98.8733 105.181 98.8591 105.145 98.8378 105.109L98.24 103.928C98.1404 103.729 98.0693 103.508 98.0408 103.274C97.7633 100.925 97.6138 98.8262 97.5854 96.9761C97.5285 92.7636 97.2082 77.2513 96.639 50.4391C96.5892 48.3542 96.2761 46.0701 96.4824 44.5615C96.5109 44.3053 96.333 44.0776 96.084 44.0492C96.0697 44.0492 96.0555 44.0492 96.0413 44.0492C94.6039 44.0065 93.871 43.302 93.8425 41.9287C93.814 40.4628 93.8425 39.0824 93.9421 37.7873C93.9635 37.5312 94.12 37.3106 94.3619 37.2181C94.796 37.0473 95.3226 36.9477 95.9417 36.9263C96.1409 36.9192 96.2974 36.7626 96.3188 36.5705C96.6176 33.0909 97.0446 29.4263 97.5854 25.5625C97.7206 24.5947 97.9839 23.9757 98.6954 23.4135C98.9658 23.2 99.1295 22.8727 99.1295 22.524C99.1651 19.0089 99.1722 13.9353 99.1651 7.31768C99.1651 5.99415 99.1366 4.51408 100.026 3.61749C101.641 1.98799 104.31 2.48609 105.27 4.51408C105.505 5.01218 105.619 5.95857 105.612 7.36038C105.612 7.4173 105.626 12.4979 105.662 22.6023C105.662 22.8941 105.769 23.1787 105.961 23.3993C106.48 23.9899 106.807 24.7797 106.928 25.7688C107.412 29.5544 107.768 33.0696 108.01 36.3215C108.031 36.5776 108.238 36.7769 108.501 36.784C109.703 36.8196 110.095 37.0686 110.266 38.2925C110.479 39.8509 110.465 41.4946 110.223 43.2309C110.152 43.7147 109.647 43.9709 108.707 44.0136C108.401 44.0278 108.159 44.2698 108.152 44.5686C107.989 48.0553 107.846 53.0791 107.718 59.6469C107.284 82.0046 107.135 93.9875 106.758 102.42C106.701 103.686 106.06 104.718 106.003 105.899C105.868 108.432 105.797 110.532 105.79 112.197C105.776 123.973 105.79 133.779 105.833 141.627C105.854 145.79 105.676 148.701 105.292 150.358C103.499 158.179 99.3928 164.732 92.4976 168.988C87.972 171.784 83.2187 173.179 78.2305 173.172C73.1143 173.172 69.4711 173.2 67.3008 173.264C62.768 173.392 59.3738 173.207 57.111 172.702C51.5465 171.457 46.8074 168.767 42.8866 164.618C40.5882 162.185 38.8733 159.716 37.7277 157.211C35.6072 152.564 34.8601 148.217 34.8601 143.214C34.8601 143.072 34.7462 142.951 34.6039 142.951C34.6039 142.951 34.6039 142.951 34.5968 142.951C29.1888 143.136 23.1404 142.858 16.8074 142.894C12.8083 142.915 10.3961 142.93 9.5778 142.944C7.74194 142.965 6.29744 142.759 5.25142 142.325C2.8036 141.3 1.1741 139.45 0.370019 136.753C0.0142318 135.572 0 133.43 0 132.469C0.0142315 122.152 0.0284625 81.8979 0.0355782 11.7081C0.0355782 8.65544 0.0853892 6.89785 0.18501 6.44245C0.981974 2.84188 4.06309 0.0596179 7.89848 0.0453864C32.462 0.00269195 48.4582 -0.0115397 55.9013 0.00980756C60.6475 0.0240391 63.6219 2.23704 64.8245 6.65592C64.8956 6.9192 64.9383 7.19671 64.9526 7.46711C65.0237 9.14643 65.0593 11.1175 65.0593 13.3803C64.9953 51.6275 65.1304 93.774 64.9383 134.732C64.917 139.614 60.8112 143.207 56.0223 142.951C55.8657 142.937 55.7305 143.058 55.7163 143.214C55.7163 143.236 55.7163 143.257 55.7163 143.271C55.7875 143.812 55.9582 144.317 56.2286 144.801C58.0005 148.017 60.4839 150.6 64.1058 151.312C69.5351 152.386 74.3525 151.703 78.1096 147.32C80.0806 145.015 80.408 142.147 80.3724 138.831C80.3083 131.722 80.2941 123.525 80.3297 114.239C80.3439 111.08 80.2443 108.255 80.0308 105.771C80.0024 105.401 79.8031 104.732 79.4473 103.772C79.3833 103.601 79.3477 103.416 79.3335 103.231C79.12 100.74 79.0133 99.303 79.0062 98.9258C78.6646 80.1829 78.259 62.0164 77.7751 44.4334C77.7751 44.1844 77.5617 43.9851 77.3055 43.9923C77.3055 43.9923 77.2984 43.9923 77.2913 43.9923C76.1812 44.0634 75.555 43.7076 75.4341 42.9249C75.2206 41.6156 75.1637 39.9363 75.2704 37.8798C75.2917 37.4244 75.6404 37.0473 76.0958 36.9832L77.3695 36.8196C77.5474 36.7982 77.6826 36.6559 77.704 36.478C78.3444 30.7854 78.6788 27.7755 78.7144 27.4268C78.8852 25.8186 78.9208 24.5378 80.0308 23.4206C80.2016 23.2498 80.3012 23.0221 80.3083 22.7802C80.6286 16.5183 80.5076 10.5838 80.4009 6.1507C80.3368 3.56768 82.5213 1.83856 84.9407 2.91303C86.5987 3.63884 86.8477 5.14738 86.8477 6.99036C86.862 14.7821 86.8762 19.2152 86.9046 20.2897C86.9331 21.6915 86.9616 22.5098 86.99 22.7517C87.0043 22.9368 87.0683 23.1146 87.175 23.2641L87.7728 24.0824C87.9507 24.3172 88.0716 24.5876 88.1357 24.8722C88.3491 25.8186 88.4986 26.7721 88.584 27.7328C88.769 29.7038 89.0038 32.6284 89.2813 36.5278C89.2955 36.7128 89.4379 36.8552 89.6157 36.8765L90.9464 37.0331C91.3235 37.0829 91.6295 37.3675 91.7007 37.7375C91.9426 39.0468 92.0493 40.4771 92.0209 42.0283C91.9924 43.5368 91.2239 43.9069 89.9146 43.978C89.694 43.9923 89.5232 44.1701 89.5161 44.3907C89.0038 62.8134 88.5911 80.738 88.2709 98.1645C88.2424 100.029 88.1072 101.793 87.8724 103.466C87.851 103.608 87.8083 103.75 87.7372 103.878L87.2675 104.796C87.2106 104.91 87.1679 105.038 87.1608 105.173C87.0327 107.109 86.9758 109.158 86.9829 111.329C87.0256 124.379 87.0612 132.22 87.0897 134.846C87.1395 140.062 87.1252 144.21 85.0047 148.836C82.8415 153.546 77.6542 156.798 72.7087 157.88C68.2756 158.848 62.7751 158.542 58.5341 156.343C53.2756 153.617 50.0451 149.256 48.8283 143.25C48.7927 143.086 48.6504 142.965 48.4796 142.965H41.6485L41.6342 142.937ZM41.6485 139.948H48.38C48.5792 139.948 48.75 139.784 48.75 139.585V139.571L48.629 136.895C48.629 136.767 48.6006 136.639 48.565 136.511C48.259 135.479 48.0669 134.433 47.9886 133.373C47.8107 131.089 47.3411 129.239 46.8786 127.282C46.7434 126.699 46.6722 126.101 46.6651 125.503C46.6509 124.286 46.6224 120.885 46.5726 115.299C46.5583 114.09 46.6366 112.972 46.8003 111.948C46.8714 111.478 47.2557 111.108 47.7253 111.051C50.0379 110.766 52.436 110.688 54.9051 110.802C55.5953 110.838 56.1931 110.944 56.6983 111.115C57.0541 111.236 57.2889 111.571 57.2889 111.941C57.3316 120.793 57.3458 125.446 57.3387 125.895C57.3316 126.464 57.0612 127.951 56.5275 130.349C56.0294 132.612 55.8088 134.867 55.1399 136.703C55.1257 136.746 55.1186 136.789 55.1257 136.831L55.1826 139.706C55.1826 139.877 55.3178 140.012 55.4886 140.012C56.2642 140.026 57.0043 139.998 57.723 139.905C60.1352 139.614 61.6651 137.685 61.8359 135.266C61.9284 133.942 61.9711 132.384 61.9711 130.605C61.8928 92.2228 61.8643 70.0359 61.8857 64.0516C61.9924 35.0051 62.0422 16.5183 62.0422 8.60563C62.0422 3.6673 58.093 2.84188 54.0583 2.85611C44.3098 2.8988 29.7083 2.92015 10.268 2.91303C8.19734 2.91303 6.78842 3.0767 6.04127 3.41114C4.04175 4.3006 3.03842 5.80203 3.00996 7.92964C2.95304 13.2095 2.96015 21.6986 3.03843 33.4111C3.074 38.8405 2.88899 43.9496 3.10247 48.9519C3.16651 50.4676 3.15939 51.9761 3.08112 53.4775C3.05977 53.9258 3.04554 55.4344 3.04554 58.0103C3.02419 86.5302 3.02419 111.45 3.05977 132.768C3.06689 135.978 3.16651 137.643 5.66414 139.258C6.38283 139.72 8.06926 139.962 10.7305 139.977C19.8814 140.034 27.8582 139.977 34.6466 139.799C34.8458 139.799 35.0095 139.621 35.0024 139.422C35.0024 139.414 35.0024 139.407 35.0024 139.4L34.3477 132.434C34.3335 132.313 34.3193 132.199 34.2908 132.078L33.0598 126.684C32.9317 126.136 32.8819 125.567 32.9032 125.005C32.9957 122.415 33.01 118.43 32.9388 113.051C32.9175 111.528 33.6646 110.781 35.1731 110.809C38.9445 110.887 40.9725 110.923 41.25 110.93C42.0612 110.944 42.6233 110.994 42.9293 111.065C43.3847 111.172 43.6267 111.642 43.648 112.474C43.7903 116.737 43.7761 121.234 43.5982 125.959C43.5697 126.798 43.1712 128.691 42.4027 131.63C42.3672 131.765 42.3387 131.907 42.3316 132.05C42.1537 133.992 42.1395 134.533 41.6912 136.476C41.499 137.315 41.4279 138.418 41.4991 139.784C41.4991 139.87 41.5702 139.934 41.6556 139.934L41.6485 139.948ZM84.0228 5.96569C84.0228 5.72375 83.8235 5.52451 83.5745 5.52451H83.5602C83.3183 5.52451 83.1191 5.72375 83.1191 5.97281L83.176 22.6592C83.176 22.9012 83.3752 23.1004 83.6243 23.1004H83.6385C83.8804 23.1004 84.0797 22.9012 84.0797 22.6521L84.0228 5.96569ZM102.766 5.95146C102.766 5.73087 102.588 5.55298 102.367 5.55298H102.353C102.132 5.55298 101.954 5.73087 101.954 5.95146V22.8015C101.954 23.0221 102.132 23.2 102.353 23.2H102.367C102.588 23.2 102.766 23.0221 102.766 22.8015V5.95146ZM86.371 36.8053C86.4777 36.8053 86.556 36.72 86.556 36.6132C86.556 36.6132 86.556 36.599 86.556 36.5919L85.4246 26.3808C85.4175 26.2883 85.3392 26.2171 85.2467 26.21L81.945 26.1388C81.8454 26.1388 81.76 26.21 81.7528 26.3096L80.7922 36.6986C80.7851 36.8053 80.8563 36.8979 80.963 36.905C80.963 36.905 80.9772 36.905 80.9843 36.905L86.3852 36.7982L86.371 36.8053ZM104.851 36.72C105.021 36.72 105.157 36.5776 105.157 36.3997C105.157 36.3926 105.157 36.3784 105.157 36.3713L104.046 26.3808C104.025 26.2242 103.89 26.1033 103.733 26.1033L100.624 26.1673C100.467 26.1673 100.339 26.2883 100.325 26.4448L99.3999 36.4709C99.3857 36.6417 99.5137 36.7911 99.6845 36.8053C99.6916 36.8053 99.7059 36.8053 99.713 36.8053L104.858 36.7128L104.851 36.72ZM89.3311 40.2565C89.3311 40.0288 89.1461 39.8367 88.9113 39.8367H78.1665C77.9388 39.8367 77.7467 40.0217 77.7467 40.2565V40.6265C77.7467 40.8542 77.9317 41.0463 78.1665 41.0463H88.9113C89.139 41.0463 89.3311 40.8613 89.3311 40.6265V40.2565ZM96.4255 40.0288V40.8044C96.4255 40.9609 96.5536 41.089 96.7102 41.0961H96.7813C102.887 41.1317 107.839 40.9111 107.846 40.6052V40.3561C107.825 40.0501 102.887 39.7797 96.7955 39.7513H96.7244C96.5678 39.7513 96.4326 39.8722 96.4326 40.0288H96.4255ZM84.9478 101.943C85.019 101.943 85.083 101.886 85.083 101.808L86.4279 44.0848C86.4279 44.0065 86.371 43.9424 86.2927 43.9424H81.0626C80.9843 43.9424 80.9274 44.0065 80.9274 44.0776L82.0517 101.801C82.0517 101.872 82.1157 101.936 82.1869 101.936H84.9478V101.943ZM99.7486 43.978C99.6632 43.978 99.592 44.0563 99.592 44.1417L100.716 101.801C100.716 101.886 100.795 101.957 100.88 101.957L103.634 101.907C103.719 101.907 103.79 101.836 103.79 101.751L105.135 44.0492C105.135 43.9638 105.071 43.8855 104.979 43.8855C104.979 43.8855 104.979 43.8855 104.972 43.8855L99.7486 43.9851V43.978ZM83.8662 104.903C83.7595 104.768 83.5674 104.739 83.4322 104.846C83.361 104.903 83.3183 104.988 83.3112 105.081C83.1831 107.913 82.9981 111.023 83.0123 113.748C83.0835 125.581 83.0693 134.796 82.9768 141.4C82.9056 146.388 80.4578 150.316 75.8966 152.657C71.8406 154.742 66.5536 155.382 62.3411 153.838C56.4137 151.661 52.4644 146.858 52.4573 140.339C52.4573 138.995 52.436 137.785 52.3861 136.703C52.3719 136.461 52.1656 136.269 51.9236 136.276C51.9236 136.276 51.9165 136.276 51.9094 136.276H51.8952C51.6319 136.298 51.4397 136.518 51.4469 136.775C51.5323 139.044 51.2974 141.912 51.7742 143.719C54.3145 153.425 63.3871 156.734 72.4668 155.069C74.3169 154.728 75.9037 154.13 77.2486 153.276C80.8278 150.992 83.4891 146.822 83.9872 142.709C84.2007 140.909 83.973 138.66 83.9801 136.355C84.0085 122.265 84.0085 111.905 83.9801 105.273C83.9801 105.109 83.9445 104.988 83.8733 104.896L83.8662 104.903ZM38.1262 136.284C37.9269 136.319 37.7846 136.49 37.7917 136.689C37.8344 139.784 37.8558 142.766 37.8416 145.619C37.8202 149.974 38.9943 154.03 41.3567 157.794C42.3601 159.388 44.018 162.121 45.7827 163.608C48.0028 165.472 50.3582 167.038 52.8558 168.297C55.7305 169.749 59.139 170.19 62.2628 170.29C65.6641 170.396 70.4459 170.446 76.6082 170.46C83.6314 170.475 90.4127 168.226 95.4507 163.06C98.8591 159.566 101.108 155.553 102.211 151.02C102.687 149.063 102.908 145.733 102.887 141.037C102.858 135.173 102.837 124.763 102.83 109.806C102.83 108.304 102.78 106.753 102.694 105.152C102.694 105.01 102.566 104.896 102.424 104.903C102.389 104.903 102.36 104.91 102.324 104.924L102.289 104.939C102.075 105.038 101.94 105.245 101.94 105.472C101.876 117.882 101.89 131.011 101.976 144.851C102.026 151.383 99.1437 158.648 94.1769 162.953C90.6404 166.013 86.7908 167.991 82.6281 168.888C80.6285 169.315 77.9032 169.486 74.445 169.4C72.0754 169.343 69.3287 169.35 66.2192 169.429C60.1352 169.585 54.9976 168.931 50.2158 165.814C47.7253 164.199 45.5408 161.929 43.5626 159.559C41.2429 156.777 39.8055 152.728 39.0441 149.028C38.7239 147.477 38.5745 145.399 38.5958 142.809C38.6101 141.215 38.5816 139.123 38.4891 136.547C38.482 136.39 38.3539 136.269 38.1973 136.276C38.1831 136.276 38.1689 136.276 38.1618 136.276H38.1333L38.1262 136.284ZM40.7234 113.961C40.7234 113.776 40.5669 113.62 40.3819 113.62H36.2405C36.0555 113.627 35.899 113.784 35.899 113.969L35.9132 123.895C35.9132 124.08 36.0697 124.237 36.2547 124.237H40.3961C40.5811 124.229 40.7377 124.073 40.7377 123.888L40.7234 113.961ZM54.4426 113.876C54.4426 113.734 54.3287 113.62 54.1864 113.62H49.917C49.7747 113.62 49.6608 113.734 49.6608 113.876V123.859C49.6608 124.002 49.7747 124.116 49.917 124.116H54.1864C54.3287 124.116 54.4426 124.002 54.4426 123.859V113.876ZM40.695 127.545C40.695 127.232 40.4388 126.976 40.1257 126.976H36.6461C36.333 126.976 36.0768 127.232 36.0768 127.545V127.866C36.0768 128.179 36.333 128.435 36.6461 128.435H40.1257C40.4388 128.435 40.695 128.179 40.695 127.866V127.545ZM54.0868 127.424C54.0868 127.225 53.916 127.062 53.7097 127.069L50.1518 127.14C49.9526 127.14 49.7889 127.311 49.796 127.517L49.8102 128.058C49.8102 128.257 49.981 128.421 50.1874 128.413L53.7453 128.342C53.9445 128.342 54.1082 128.172 54.101 127.965L54.0868 127.424ZM39.4355 131.957C39.4355 131.708 39.2291 131.509 38.973 131.509L37.5427 131.53C37.2936 131.53 37.0944 131.744 37.0944 131.993L37.1086 132.911C37.1086 133.16 37.315 133.359 37.5712 133.359L39.0014 133.338C39.2505 133.338 39.4497 133.124 39.4497 132.875L39.4355 131.957ZM53.1475 132.128C53.1546 131.872 52.9483 131.651 52.6921 131.644L51.2405 131.601C50.9843 131.594 50.7638 131.801 50.7566 132.057L50.7353 132.868C50.7282 133.124 50.9345 133.345 51.1907 133.352L52.6423 133.395C52.8985 133.402 53.1191 133.195 53.1262 132.939L53.1475 132.128Z" fill="#00144F"/>
<path d="M58.9756 34.1514C58.9756 36.585 57.0045 38.5489 54.5781 38.5489H9.35749C6.92391 38.5489 4.95996 36.5778 4.95996 34.1514V9.08259C4.95996 6.649 6.93102 4.68506 9.35749 4.68506H54.5781C57.0117 4.68506 58.9756 6.65612 58.9756 9.08259V34.1514ZM31.829 8.77662C46.7436 8.75527 54.6279 8.76238 55.4747 8.79085C55.6739 8.79796 55.8447 8.64141 55.8518 8.44217C55.8518 8.32121 55.802 8.20735 55.7095 8.1362C55.2541 7.78752 54.7417 7.61675 54.1725 7.63809C53.3257 7.66656 45.8826 7.68791 31.829 7.70925C17.7754 7.7306 10.3324 7.72348 9.48558 7.69502C8.91632 7.68079 8.40398 7.84445 7.94858 8.20024C7.79203 8.32121 7.76357 8.54891 7.88453 8.71257C7.95569 8.80508 8.06243 8.85489 8.17628 8.84777C9.02305 8.81931 16.9073 8.79085 31.8219 8.7695L31.829 8.77662ZM56.1507 11.6585C56.1507 11.4593 55.9941 11.3027 55.7949 11.3027L8.28302 11.2173C8.08378 11.2173 7.92723 11.3739 7.92723 11.5731L7.89165 31.241C7.89165 31.4403 8.0482 31.5968 8.24744 31.5968L55.7593 31.6822C55.9585 31.6822 56.1151 31.5257 56.1151 31.3264L56.1507 11.6585ZM56.0084 35.0764C56.0084 34.7989 55.7878 34.5783 55.5102 34.5783H8.61034C8.33283 34.5783 8.11224 34.7989 8.11224 35.0764V35.0907C8.11224 35.3682 8.33283 35.5888 8.61034 35.5888H55.5102C55.7878 35.5888 56.0084 35.3682 56.0084 35.0907V35.0764Z" fill="#00144F"/>
<path d="M41.8698 12.6203L41.024 13.0606C40.5604 13.3019 40.3802 13.8734 40.6216 14.337L47.4952 27.5412C47.7366 28.0048 48.3081 28.185 48.7717 27.9437L49.6175 27.5034C50.0811 27.262 50.2613 26.6905 50.0199 26.2269L43.1463 13.0227C42.9049 12.5591 42.3334 12.3789 41.8698 12.6203Z" fill="#00144F"/>
<path d="M37.7584 16.3305L36.9291 16.7865C36.4607 17.044 36.2898 17.6324 36.5473 18.1007L42.3201 28.6014C42.5776 29.0698 43.166 29.2407 43.6343 28.9833L44.4637 28.5273C44.932 28.2699 45.103 27.6814 44.8455 27.2131L39.0727 16.7124C38.8152 16.244 38.2268 16.0731 37.7584 16.3305Z" fill="#00144F"/>
<path d="M38.5744 28.971L37.87 29.5473C37.443 29.896 36.8097 29.832 36.454 29.405C36.4113 29.3481 36.3686 29.2912 36.3401 29.2271L32.9886 22.6095C32.7395 22.1185 32.9317 21.5065 33.4298 21.2575C33.4725 21.2361 33.5151 21.2219 33.5578 21.2006L34.4117 20.9088C34.8885 20.7452 35.4079 20.9586 35.6356 21.4069L38.8448 27.7399C39.0583 28.1598 38.9516 28.6792 38.5816 28.971H38.5744Z" fill="#00144F"/>
<path d="M59.8643 53.62C59.8643 54.3743 59.2523 54.9863 58.4981 54.9863H5.79884C5.04457 54.9863 4.43262 54.3743 4.43262 53.62V42.1423C4.43262 41.3881 5.04457 40.7761 5.79884 40.7761H58.4981C59.2523 40.7761 59.8643 41.3881 59.8643 42.1423V53.62ZM56.897 44.1348C56.897 43.8644 56.6764 43.6438 56.406 43.6438H7.95491C7.68451 43.6438 7.46393 43.8644 7.46393 44.1348V51.6063C7.46393 51.8767 7.68451 52.0973 7.95491 52.0973H56.406C56.6764 52.0973 56.897 51.8767 56.897 51.6063V44.1348Z" fill="#00144F"/>
<path d="M28.3416 47.4669L22.6775 47.4867C21.8443 47.4896 21.1713 48.1673 21.1742 49.0005L21.1746 49.1143C21.1775 49.9475 21.8553 50.6205 22.6884 50.6176L28.3525 50.5978C29.1856 50.5949 29.8587 49.9172 29.8558 49.084L29.8554 48.9702C29.8525 48.137 29.1747 47.464 28.3416 47.4669Z" fill="#00144F"/>
<path d="M41.2494 47.5135L35.4288 47.544C34.6586 47.548 34.0374 48.1757 34.0415 48.9459L34.0427 49.1879C34.0468 49.9581 34.6745 50.5793 35.4447 50.5752L41.2653 50.5448C42.0356 50.5407 42.6567 49.913 42.6527 49.1428L42.6514 48.9009C42.6474 48.1306 42.0197 47.5095 41.2494 47.5135Z" fill="#00144F"/>
<path d="M8.09179 48.8793L8.08901 49.0785C8.07814 49.8566 8.70007 50.4961 9.47812 50.507L15.4192 50.5899C16.1972 50.6008 16.8368 49.9789 16.8476 49.2008L16.8504 49.0016C16.8613 48.2236 16.2394 47.584 15.4613 47.5731L9.52024 47.4902C8.7422 47.4793 8.10265 48.1013 8.09179 48.8793Z" fill="#00144F"/>
<path d="M54.1794 47.5205L48.2804 47.5308C47.5102 47.5321 46.8868 48.1576 46.8882 48.9279L46.8886 49.1698C46.8899 49.9401 47.5155 50.5634 48.2857 50.5621L54.1847 50.5518C54.9549 50.5504 55.5783 49.9249 55.5769 49.1547L55.5765 48.9127C55.5751 48.1425 54.9496 47.5191 54.1794 47.5205Z" fill="#00144F"/>
<path d="M38.3677 64.4503C39.5545 64.4503 40.5167 63.4881 40.5167 62.3013C40.5167 61.1145 39.5545 60.1523 38.3677 60.1523C37.1809 60.1523 36.2188 61.1145 36.2188 62.3013C36.2188 63.4881 37.1809 64.4503 38.3677 64.4503Z" fill="#00144F"/>
<path d="M15.3539 60.4889L9.70421 60.5382C8.87896 60.5454 8.2158 61.2203 8.223 62.0455L8.22499 62.2732C8.23219 63.0985 8.90703 63.7616 9.73228 63.7544L15.382 63.7051C16.2072 63.6979 16.8704 63.0231 16.8632 62.1978L16.8612 61.9701C16.854 61.1449 16.1792 60.4817 15.3539 60.4889Z" fill="#00144F"/>
<path d="M28.1708 60.5508H22.4782C21.7276 60.5508 21.1191 61.1593 21.1191 61.9099V62.3084C21.1191 63.059 21.7276 63.6675 22.4782 63.6675H28.1708C28.9215 63.6675 29.53 63.059 29.53 62.3084V61.9099C29.53 61.1593 28.9215 60.5508 28.1708 60.5508Z" fill="#00144F"/>
<path d="M30.6271 66.8062L30.6143 69.2468C30.611 69.8677 31.1117 70.3737 31.7327 70.377L32.5581 70.3813C33.179 70.3846 33.685 69.8838 33.6882 69.2629L33.701 66.8222C33.7043 66.2013 33.2036 65.6953 32.5826 65.6921L31.7572 65.6878C31.1363 65.6845 30.6303 66.1852 30.6271 66.8062Z" fill="#00144F"/>
<path d="M24.3848 66.8644L23.8051 67.101C23.1792 67.3564 22.8789 68.0708 23.1343 68.6967L23.9678 70.739C24.2232 71.3649 24.9376 71.6652 25.5634 71.4098L26.1432 71.1732C26.769 70.9178 27.0693 70.2034 26.8139 69.5775L25.9804 67.5352C25.725 66.9093 25.0107 66.609 24.3848 66.8644Z" fill="#00144F"/>
<path d="M38.0046 67.5458L37.2072 69.7014C36.9795 70.3169 37.2939 71.0005 37.9094 71.2282L38.5234 71.4553C39.139 71.683 39.8225 71.3686 40.0502 70.7531L40.8476 68.5974C41.0753 67.9819 40.7609 67.2983 40.1454 67.0706L39.5314 66.8435C38.9158 66.6158 38.2323 66.9302 38.0046 67.5458Z" fill="#00144F"/>
<path d="M17.1337 70.7806L16.7733 71.0928C16.2357 71.5585 16.1774 72.3719 16.6431 72.9095L18.2038 74.7113C18.6696 75.249 19.483 75.3073 20.0206 74.8416L20.381 74.5294C20.9186 74.0637 20.9769 73.2503 20.5112 72.7126L18.9504 70.9108C18.4847 70.3732 17.6713 70.3149 17.1337 70.7806Z" fill="#00144F"/>
<path d="M49.675 89.8678C49.675 99.5879 41.7978 107.465 32.0777 107.465C22.3576 107.465 14.4805 99.5879 14.4805 89.8678C14.4805 80.1476 22.3576 72.2705 32.0777 72.2705C41.7978 72.2705 49.675 80.1476 49.675 89.8678ZM33.878 85.4418C35.7708 86.2387 37.6707 87.0499 39.5777 87.8825C42.1536 89.0068 44.3524 89.8891 46.1882 90.5295C46.3661 90.5936 46.5583 90.5011 46.6152 90.3232C46.6294 90.2876 46.6365 90.252 46.6365 90.2164C46.7575 85.5698 45.1209 81.7416 41.7409 78.7316C40.2679 77.4223 38.9658 76.5257 37.813 76.049C36.6674 75.5651 35.1161 75.2591 33.1522 75.1239C28.6408 74.8179 24.7627 76.3336 21.5251 79.6638C21.397 79.799 21.397 80.0124 21.5251 80.1405C21.5535 80.169 21.582 80.1903 21.6176 80.2046C23.3609 81.0585 25.5312 82.012 28.1356 83.0651C30.064 83.8478 31.9781 84.6377 33.8709 85.4275L33.878 85.4418ZM19.0488 85.3421C18.8638 84.8013 18.8709 84.3175 19.0772 83.8976C19.1413 83.7624 19.248 83.6415 19.3761 83.5632C19.9027 83.2501 20.6427 82.8659 21.2262 83.3355C21.5393 83.5917 21.703 83.9119 21.703 84.3104C21.703 84.9721 21.3045 85.5556 20.7139 85.7477C20.5644 85.7976 20.4506 85.8687 20.3794 85.9612C20.3154 86.0324 20.3296 86.1462 20.4008 86.2032C20.415 86.2174 20.4292 86.2245 20.4506 86.2316C25.3035 88.0675 29.879 90.0172 34.184 92.0665C37.0303 93.4185 41.1076 94.7776 44.2812 96.4996C44.6512 96.6989 45.1067 96.5566 45.2988 96.1937C45.313 96.1581 45.3344 96.1225 45.3415 96.0869L45.9179 94.5001C46.0744 94.0732 45.8538 93.5964 45.4198 93.4399C43.0289 92.6002 40.4174 91.4688 37.5924 90.067C36.1052 89.327 34.0986 88.9 32.5331 88.1813C28.3989 86.2885 25.3178 84.9294 23.2969 84.1111C22.0587 83.6059 19.7177 81.5352 18.9278 83.428C18.629 84.1538 18.3301 84.8512 18.6716 85.5343C18.7143 85.6197 18.814 85.6552 18.8993 85.6197L18.9278 85.6054C19.0274 85.5627 19.0772 85.4489 19.0417 85.3493L19.0488 85.3421ZM17.3979 88.224C17.22 90.9921 17.5545 93.511 18.814 95.9731C19.5327 97.382 19.9738 98.2003 20.1304 98.428C23.0763 102.648 27.2604 104.711 32.6754 104.604C37.0445 104.519 40.2253 102.491 43.1498 99.5879C43.3135 99.4242 43.3135 99.1609 43.1498 98.9973C43.1142 98.9617 43.0716 98.9332 43.0217 98.9119L17.6897 88.0461C17.5829 88.0034 17.4549 88.0461 17.4122 88.16C17.405 88.1813 17.3979 88.2027 17.3979 88.2311V88.224Z" fill="#00144F"/>
<path d="M46.9682 72.6098L45.1946 74.2237C44.6627 74.7077 44.6238 75.5313 45.1078 76.0632L45.4047 76.3895C45.8888 76.9215 46.7123 76.9603 47.2443 76.4763L49.0179 74.8624C49.5498 74.3784 49.5887 73.5548 49.1047 73.0229L48.8077 72.6966C48.3237 72.1646 47.5001 72.1258 46.9682 72.6098Z" fill="#00144F"/>
<path d="M52.0159 78.6072L49.9081 79.5237C49.3063 79.7854 49.0305 80.4855 49.2922 81.0873L49.4738 81.505C49.7355 82.1068 50.4355 82.3826 51.0374 82.1209L53.1452 81.2044C53.747 80.9427 54.0228 80.2427 53.7611 79.6408L53.5795 79.2232C53.3178 78.6213 52.6178 78.3455 52.0159 78.6072Z" fill="#00144F"/>
<path d="M10.7406 79.5731L10.5787 79.9527C10.3012 80.6034 10.6036 81.3558 11.2543 81.6334L13.1393 82.4374C13.79 82.7149 14.5425 82.4125 14.82 81.7618L14.9819 81.3822C15.2594 80.7315 14.957 79.979 14.3063 79.7015L12.4213 78.8975C11.7706 78.6199 11.0181 78.9224 10.7406 79.5731Z" fill="#00144F"/>
<path d="M54.762 85.8995L52.2864 85.9557C51.5517 85.9723 50.9696 86.5814 50.9862 87.3161L50.9927 87.6007C51.0094 88.3354 51.6185 88.9175 52.3532 88.9008L54.8288 88.8446C55.5635 88.828 56.1456 88.2188 56.129 87.4841L56.1225 87.1996C56.1058 86.4649 55.4967 85.8828 54.762 85.8995Z" fill="#00144F"/>
<path d="M11.8213 86.0845L9.40222 86.1183C8.73027 86.1276 8.19315 86.68 8.20254 87.3519L8.2077 87.7219C8.21709 88.3939 8.76941 88.931 9.44137 88.9216L11.8605 88.8878C12.5324 88.8784 13.0696 88.3261 13.0602 87.6542L13.055 87.2842C13.0456 86.6122 12.4933 86.0751 11.8213 86.0845Z" fill="#00144F"/>
<path d="M4.65398 114.431C5.47229 111.556 8.5036 109.906 11.4282 110.738C14.3527 111.571 16.0605 114.574 15.2422 117.448C14.4239 120.323 11.3926 121.974 8.46802 121.141C5.54345 120.309 3.83567 117.306 4.65398 114.431ZM12.4457 115.869C12.4457 114.431 11.2859 113.271 9.84848 113.271C8.41109 113.271 7.25123 114.431 7.25123 115.869C7.25123 117.306 8.41109 118.466 9.84848 118.466C11.2859 118.466 12.4457 117.306 12.4457 115.869Z" fill="#00144F"/>
<path d="M17.4621 115.363C17.7823 112.389 20.4934 110.24 23.5176 110.567C26.5346 110.894 28.7263 113.577 28.399 116.551C28.0788 119.526 25.3677 121.675 22.3435 121.347C19.3264 121.02 17.1347 118.338 17.4621 115.363ZM25.5811 116.068C25.5811 114.623 24.407 113.449 22.9625 113.449C21.518 113.449 20.3439 114.623 20.3439 116.068C20.3439 117.512 21.518 118.686 22.9625 118.686C24.407 118.686 25.5811 117.512 25.5811 116.068Z" fill="#00144F"/>
<path d="M22.4003 133.146H8.5388C7.78818 133.146 7.17969 133.754 7.17969 134.505V134.739C7.17969 135.49 7.78818 136.099 8.5388 136.099H22.4003C23.1509 136.099 23.7594 135.49 23.7594 134.739V134.505C23.7594 133.754 23.1509 133.146 22.4003 133.146Z" fill="#00144F"/>
<path d="M26.8481 136.127C27.6773 136.127 28.3495 135.455 28.3495 134.626C28.3495 133.797 27.6773 133.125 26.8481 133.125C26.0189 133.125 25.3467 133.797 25.3467 134.626C25.3467 135.455 26.0189 136.127 26.8481 136.127Z" fill="#00144F"/>
<path d="M142.058 104.761H174.158V68.7693H142.058V39.1891H182.213V0.735596H117.353V173.285H183.686V134.832H142.058V104.761Z" fill="#00144F"/>
<path d="M250.111 107.187L229.504 0.735352H193.128V173.285H220.581V88.7643L237.801 173.285H260.643L277.863 88.7643V173.285H305.315V0.735352H269.594L250.111 107.187Z" fill="#00144F"/>
<path d="M344.8 0.735352H316.138V173.292H344.8V0.735352Z" fill="#00144F"/>
<path d="M1.28809 185.276H12.6306V188.941H5.60735V191.758H11.2217V195.188H5.60735V198.056H12.8868V201.72H1.28809V185.283V185.276Z" fill="#F5AF1B"/>
<path d="M14.8789 201.713V185.276H19.1982V198.049H25.211V201.713H14.8789Z" fill="#F5AF1B"/>
<path d="M26.9756 185.276H38.3181V188.941H31.2948V191.758H36.9092V195.188H31.2948V198.056H38.5743V201.72H26.9756V185.283V185.276Z" fill="#F5AF1B"/>
<path d="M39.5352 193.494C39.5352 188.421 42.6092 185.133 47.704 185.133C51.7458 185.133 54.5636 187.738 54.8696 191.402H50.5503C50.2444 189.83 49.1628 188.705 47.4763 188.705C45.2206 188.705 43.954 190.676 43.954 193.494C43.954 196.312 45.2206 198.283 47.4763 198.283C49.1699 198.283 50.2444 197.159 50.5503 195.579H54.8696C54.5636 199.244 51.6533 201.848 47.4692 201.848C42.5167 201.848 39.5352 198.561 39.5352 193.487V193.494Z" fill="#F5AF1B"/>
<path d="M55.0547 185.276H68.2544V188.941H63.8142V201.713H59.4949V188.941H55.0547V185.276Z" fill="#F5AF1B"/>
<path d="M70.0117 185.276H76.9425C80.7209 185.276 83.2826 187.51 83.2826 190.961C83.2826 192.982 82.322 194.626 80.8419 195.587L83.8234 201.713H79.0772L76.6578 196.64H74.331V201.713H70.0117V185.276ZM74.331 188.798V193.117H76.5867C77.9956 193.117 78.8637 192.292 78.8637 190.954C78.8637 189.616 77.9956 188.791 76.5867 188.791H74.331V188.798Z" fill="#F5AF1B"/>
<path d="M85.3467 185.276H89.6659V201.713H85.3467V185.276Z" fill="#F5AF1B"/>
<path d="M91.5654 193.494C91.5654 188.421 94.6394 185.133 99.7343 185.133C103.776 185.133 106.594 187.738 106.9 191.402H102.581C102.275 189.83 101.193 188.705 99.5066 188.705C97.2509 188.705 95.9843 190.676 95.9843 193.494C95.9843 196.312 97.2509 198.283 99.5066 198.283C101.2 198.283 102.275 197.159 102.581 195.579H106.9C106.594 199.244 103.684 201.848 99.4995 201.848C94.5469 201.848 91.5654 198.561 91.5654 193.487V193.494Z" fill="#F5AF1B"/>
<path d="M106.736 201.713L112.607 185.276H117.823L123.643 201.713H118.997L117.965 198.589H112.237L111.226 201.713H106.743H106.736ZM113.333 195.181H116.834L115.069 189.851L113.333 195.181Z" fill="#F5AF1B"/>
<path d="M124.932 201.713V185.276H129.251V198.049H135.264V201.713H124.932Z" fill="#F5AF1B"/>
<path d="M141.974 193.494C141.974 188.421 145.048 185.133 150.143 185.133C154.184 185.133 157.002 187.738 157.308 191.402H152.989C152.683 189.83 151.601 188.705 149.915 188.705C147.659 188.705 146.393 190.676 146.393 193.494C146.393 196.312 147.659 198.283 149.915 198.283C151.608 198.283 152.683 197.159 152.989 195.579H157.308C157.002 199.244 154.092 201.848 149.908 201.848C144.955 201.848 141.974 198.561 141.974 193.487V193.494Z" fill="#F5AF1B"/>
<path d="M166.537 201.855C161.584 201.855 158.226 198.262 158.226 193.494C158.226 188.727 161.584 185.133 166.537 185.133C171.489 185.133 174.848 188.727 174.848 193.494C174.848 198.262 171.489 201.855 166.537 201.855ZM166.537 198.283C168.935 198.283 170.436 196.241 170.436 193.494C170.436 190.748 168.935 188.705 166.537 188.705C164.139 188.705 162.637 190.748 162.637 193.494C162.637 196.241 164.139 198.283 166.537 198.283Z" fill="#F5AF1B"/>
<path d="M176.748 201.713V185.276H180.669L186.66 194.363V185.276H190.908V201.713H186.988L180.996 192.626V201.713H176.748Z" fill="#F5AF1B"/>
<path d="M192.666 185.276H205.866V188.941H201.426V201.713H197.106V188.941H192.666V185.276Z" fill="#F5AF1B"/>
<path d="M207.624 185.276H214.554C218.333 185.276 220.894 187.51 220.894 190.961C220.894 192.982 219.934 194.626 218.454 195.587L221.435 201.713H216.689L214.27 196.64H211.943V201.713H207.624V185.276ZM211.943 188.798V193.117H214.199C215.607 193.117 216.476 192.292 216.476 190.954C216.476 189.616 215.607 188.791 214.199 188.791H211.943V188.798Z" fill="#F5AF1B"/>
<path d="M221.663 201.713L227.533 185.276H232.749L238.57 201.713H233.923L232.891 198.589H227.163L226.153 201.713H221.67H221.663ZM228.266 195.181H231.767L230.002 189.851L228.266 195.181Z" fill="#F5AF1B"/>
<path d="M238.478 193.494C238.478 188.421 241.552 185.133 246.646 185.133C250.688 185.133 253.506 187.738 253.812 191.402H249.493C249.187 189.83 248.105 188.705 246.419 188.705C244.163 188.705 242.896 190.676 242.896 193.494C242.896 196.312 244.163 198.283 246.419 198.283C248.112 198.283 249.187 197.159 249.493 195.579H253.812C253.506 199.244 250.596 201.848 246.412 201.848C241.459 201.848 238.478 198.561 238.478 193.487V193.494Z" fill="#F5AF1B"/>
<path d="M253.997 185.276H267.196V188.941H262.756V201.713H258.437V188.941H253.997V185.276Z" fill="#F5AF1B"/>
<path d="M275.529 201.855C270.576 201.855 267.218 198.262 267.218 193.494C267.218 188.727 270.576 185.133 275.529 185.133C280.482 185.133 283.84 188.727 283.84 193.494C283.84 198.262 280.482 201.855 275.529 201.855ZM275.529 198.283C277.927 198.283 279.428 196.241 279.428 193.494C279.428 190.748 277.927 188.705 275.529 188.705C273.131 188.705 271.63 190.748 271.63 193.494C271.63 196.241 273.131 198.283 275.529 198.283Z" fill="#F5AF1B"/>
<path d="M285.74 185.276H292.671C296.449 185.276 299.011 187.51 299.011 190.961C299.011 192.982 298.05 194.626 296.57 195.587L299.552 201.713H294.806L292.386 196.64H290.059V201.713H285.74V185.276ZM290.059 188.798V193.117H292.315C293.724 193.117 294.592 192.292 294.592 190.954C294.592 189.616 293.724 188.791 292.315 188.791H290.059V188.798Z" fill="#F5AF1B"/>
<path d="M306.703 185.276H311.022V201.713H306.703V185.276Z" fill="#F5AF1B"/>
<path d="M313.605 201.713V185.276H317.526L323.518 194.363V185.276H327.766V201.713H323.845L317.854 192.626V201.713H313.605Z" fill="#F5AF1B"/>
<path d="M329.666 193.494C329.666 188.421 332.74 185.133 337.834 185.133C341.876 185.133 344.694 187.738 345 191.402H340.681C340.375 189.83 339.293 188.705 337.607 188.705C335.351 188.705 334.084 190.676 334.084 193.494C334.084 196.312 335.351 198.283 337.607 198.283C339.3 198.283 340.375 197.159 340.681 195.579H345C344.694 199.244 341.784 201.848 337.6 201.848C332.647 201.848 329.666 198.561 329.666 193.487V193.494Z" fill="#F5AF1B"/>
</svg>
