<svg width="34" height="34" viewBox="0 0 34 34" fill="none" xmlns="http://www.w3.org/2000/svg">
<path d="M17.0003 17.0002C17.7795 17.0002 18.4465 16.7227 19.0014 16.1679C19.5562 15.613 19.8337 14.946 19.8337 14.1668C19.8337 13.3877 19.5562 12.7206 19.0014 12.1658C18.4465 11.6109 17.7795 11.3335 17.0003 11.3335C16.2212 11.3335 15.5541 11.6109 14.9993 12.1658C14.4444 12.7206 14.167 13.3877 14.167 14.1668C14.167 14.946 14.4444 15.613 14.9993 16.1679C15.5541 16.7227 16.2212 17.0002 17.0003 17.0002ZM17.0003 27.4127C19.8809 24.7682 22.0177 22.3658 23.4107 20.2054C24.8038 18.045 25.5003 16.1266 25.5003 14.4502C25.5003 11.8766 24.6798 9.76926 23.0389 8.12829C21.3979 6.48732 19.385 5.66683 17.0003 5.66683C14.6156 5.66683 12.6028 6.48732 10.9618 8.12829C9.32081 9.76926 8.50033 11.8766 8.50033 14.4502C8.50033 16.1266 9.19685 18.045 10.5899 20.2054C11.983 22.3658 14.1198 24.7682 17.0003 27.4127ZM17.0003 31.1668C13.1989 27.9321 10.3597 24.9276 8.48262 22.1533C6.60553 19.379 5.66699 16.8113 5.66699 14.4502C5.66699 10.9085 6.80623 8.08697 9.0847 5.98558C11.3632 3.88419 14.0017 2.8335 17.0003 2.8335C19.9989 2.8335 22.6375 3.88419 24.916 5.98558C27.1944 8.08697 28.3337 10.9085 28.3337 14.4502C28.3337 16.8113 27.3951 19.379 25.518 22.1533C23.641 24.9276 20.8017 27.9321 17.0003 31.1668Z" fill="#F5AF1B"/>
</svg>
